<?xml version="1.0" standalone="no"?>
<!DOCTYPE svg PUBLIC "-//W3C//DTD SVG 20010904//EN"
 "http://www.w3.org/TR/2001/REC-SVG-20010904/DTD/svg10.dtd">
<svg version="1.0" xmlns="http://www.w3.org/2000/svg"
 width="511.000000pt" height="511.000000pt" viewBox="0 0 511.000000 511.000000"
 preserveAspectRatio="xMidYMid meet">
<metadata>
Created by potrace 1.14, written by Peter Selinger 2001-2017
</metadata>
<g transform="translate(0.000000,511.000000) scale(0.100000,-0.100000)"
fill="#000000" stroke="none">
<path d="M2735 5080 c-75 -30 -155 -98 -228 -196 -145 -193 -304 -567 -417
-984 -17 -63 -33 -121 -36 -128 -2 -9 -33 12 -87 61 -303 274 -655 502 -902
583 -165 54 -317 42 -403 -32 -116 -99 -132 -272 -45 -503 104 -279 392 -706
750 -1113 57 -64 103 -119 103 -122 0 -2 -78 -45 -172 -94 -377 -196 -663
-365 -838 -496 -324 -241 -418 -463 -262 -621 73 -74 195 -113 382 -122 270
-13 614 49 1012 183 89 30 165 54 168 54 4 0 4 -188 2 -418 -6 -553 15 -745
102 -928 66 -139 154 -201 271 -192 82 7 136 37 220 122 199 200 371 604 480
1126 14 68 27 125 28 127 2 1 45 -32 97 -74 743 -594 1137 -767 1324 -579 160
159 64 518 -257 969 -39 55 -75 101 -82 103 -6 3 -55 3 -107 2 l-97 -3 105
-175 c194 -323 303 -570 307 -694 2 -80 -12 -89 -118 -83 -174 10 -472 140
-790 345 -135 87 -365 260 -365 275 0 7 11 77 25 157 31 180 31 180 2 180 -19
0 -27 -14 -60 -113 -22 -61 -43 -123 -48 -135 l-9 -24 -33 27 c-78 65 -277
248 -277 255 0 4 90 42 200 85 110 43 200 82 200 86 0 13 -17 11 -48 -5 -47
-24 -353 -136 -371 -136 -25 0 -346 333 -486 505 l-37 44 42 203 c23 112 42
204 43 204 18 15 631 218 692 230 35 6 40 4 101 -57 35 -35 64 -57 64 -49 0 8
-23 38 -52 67 -28 29 -50 54 -47 57 2 2 63 20 134 40 72 20 138 39 148 42 14
5 17 -2 17 -41 0 -45 1 -46 27 -43 25 3 29 8 36 55 10 61 -18 48 247 112 597
145 1081 186 1273 110 54 -22 21 -104 -90 -221 l-56 -58 166 0 166 0 21 29
c51 72 75 143 75 221 0 87 -19 134 -77 192 -85 85 -193 118 -413 125 -289 10
-676 -56 -1137 -192 -65 -19 -121 -35 -124 -35 -7 0 -4 31 20 241 28 238 39
505 27 679 -30 424 -117 662 -278 757 -61 35 -158 41 -228 13z m142 -273 c101
-150 183 -654 200 -1238 l6 -215 -79 -28 c-43 -15 -143 -53 -222 -83 l-143
-55 -202 199 c-164 160 -202 203 -200 223 1 13 28 103 59 200 148 462 329 841
469 983 56 56 81 60 112 14z m-1836 -643 c162 -53 538 -256 850 -459 l126 -82
-28 -129 c-28 -125 -77 -405 -100 -570 l-11 -81 -110 -54 -111 -53 -29 34
c-62 73 -277 357 -354 467 -209 299 -366 580 -423 758 -29 90 -40 182 -23 199
13 14 128 -2 213 -30z m1282 -762 c172 -130 280 -224 265 -233 -7 -4 -81 -37
-163 -72 -83 -36 -198 -88 -257 -116 -86 -40 -108 -47 -108 -34 0 18 88 365
121 476 14 46 24 65 32 60 7 -3 56 -40 110 -81z m-456 -676 c-3 -7 -9 -51 -12
-97 -4 -46 -11 -90 -14 -97 -5 -9 -28 11 -70 63 -35 42 -61 78 -59 80 8 9 134
64 147 64 7 1 11 -5 8 -13z m-194 -284 l148 -148 -22 -310 c-12 -170 -24 -312
-28 -316 -8 -9 -387 -72 -581 -97 -257 -34 -365 -42 -539 -42 -172 1 -257 13
-306 45 -130 86 269 496 784 806 95 57 379 209 391 210 3 0 72 -67 153 -148z
m283 -273 c16 -17 111 -103 212 -191 100 -88 182 -162 182 -164 0 -8 -208 -65
-479 -129 l-24 -6 6 78 c16 195 51 443 62 443 6 0 24 -14 41 -31z m607 -531
c100 -83 187 -156 194 -162 19 -18 -170 -502 -316 -811 -135 -283 -262 -455
-338 -455 -64 0 -151 188 -201 435 -45 216 -56 346 -57 648 l0 289 265 103
c146 57 267 103 268 104 2 1 86 -67 185 -151z"/>
<path d="M3919 3046 c-65 -23 -110 -66 -130 -126 l-11 -30 -146 0 c-121 0
-154 -4 -187 -19 -22 -10 -137 -100 -254 -199 -249 -211 -255 -214 -294 -129
-33 73 -67 109 -134 145 -154 82 -347 53 -456 -68 -148 -164 -41 -396 203
-440 174 -32 361 65 396 204 l6 26 152 0 152 0 174 -146 c96 -80 193 -155 215
-167 33 -17 62 -22 157 -25 l117 -4 6 -28 c9 -43 70 -106 120 -125 65 -25 144
-17 197 21 111 78 118 245 13 331 -104 86 -260 54 -316 -66 l-24 -50 -90 0
c-68 -1 -100 4 -133 19 -32 15 -188 136 -297 232 -5 4 235 8 533 8 l542 0 0
-63 c0 -61 11 -87 36 -87 18 0 287 158 301 176 8 11 9 23 4 33 -5 9 -75 54
-156 100 -174 100 -177 100 -185 -5 l-5 -69 -652 -3 c-359 -1 -653 1 -652 5 0
12 328 287 358 300 16 7 78 12 161 12 l135 1 25 -52 c43 -90 153 -138 246
-108 95 31 144 99 144 203 0 53 -5 71 -30 111 -50 79 -152 114 -241 82z"/>
</g>
</svg>
